{"title":"Cirque Du Soleil Nouvelle Experience DVDRip x264","uid":6782238,"size":702826068,"categoryP":"video","categoryS":"movies","magnet":"?xt=urn:btih:9583d8f4894bdff884bbf48244541106f0925fb8&amp;dn=Cirque+Du+Soleil+Nouvelle+Experience+DVDRip+x264&amp;tr=udp%3A%2F%2Ftracker.openbittorrent.com%3A80&amp;tr=udp%3A%2F%2Fopen.demonii.com%3A1337&amp;tr=udp%3A%2F%2Ftracker.coppersurfer.tk%3A6969&amp;tr=udp%3A%2F%2Fexodus.desync.com%3A6969","seeders":0,"leechers":0,"uploader":"yassergre","files":-1,"time":1319948253,"description":"_______________________________________________________________________________\nGeneral\nFormat                                   : MPEG-4\nFile size                                : 670 MiB\nDuration                                 : 1h 25mn\nOverall bit rate                         : 1 102 Kbps\nMovie name                               : Cirque.Du.Soleil.Nouvelle.Experience\nGenre                                    : Cirque\nRecorded date                            : 1991\n_______________________________________________________________________________\nVideo\nID                                       : 1\nFormat                                   : AVC\nFormat/Info                              : Advanced Video Codec\nDuration                                 : 1h 25mn\nBit rate                                 : 1 000 Kbps\nMaximum bit rate                         : 3 617 Kbps\nWidth                                    : 480 pixels\nHeight                                   : 400 pixels\nDisplay aspect ratio                     : 1.300\nFrame rate mode                          : Constant\nFrame rate                               : 23.976 fps\nStream size                              : 609 MiB (91%)\nWriting library                          : x264 core 116 r2042 178455c\n________________________________________________________________________________\nAudio\nID                                       : 2\nFormat                                   : AAC\nFormat/Info                              : Advanced Audio Codec\nFormat profile                           : LC\nDuration                                 : 1h 25mn\nBit rate mode                            : Variable\nBit rate                                 : 96.0 Kbps\nMaximum bit rate                         : 130 Kbps\nChannel(s)                               : 2 channels\nSampling rate                            : 48.0 KHz\nStream size                              : 59.3 MiB (9%)\nTitle                                    : LC-AAC Stereo\n-------------------------------------------------------------------------------","torrent":{"xt":"urn:btih:9583d8f4894bdff884bbf48244541106f0925fb8","amp;dn":"Cirque+Du+Soleil+Nouvelle+Experience+DVDRip+x264","amp;tr":["udp%3A%2F%2Ftracker.openbittorrent.com%3A80","udp%3A%2F%2Fopen.demonii.com%3A1337","udp%3A%2F%2Ftracker.coppersurfer.tk%3A6969","udp%3A%2F%2Fexodus.desync.com%3A6969"],"infoHash":"9583d8f4894bdff884bbf48244541106f0925fb8","infoHashBuffer":{"type":"Buffer","data":[149,131,216,244,137,75,223,248,132,187,244,130,68,84,17,6,240,146,95,184]},"announce":[],"urlList":[]}}